<svg id="kity_svg_6" xmlns="http://www.w3.org/2000/svg" xmlns:xlink="http://www.w3.org/1999/xlink" version="1.1" width="691" height="643" style="background: rgb(251, 251, 251); visibility: visible;" viewBox="0 0 691 643"><defs id="kity_defs_7"><linearGradient id="kity_linearGradient_17" x1="0" y1="0" x2="0" y2="1"><stop id="kity_stop_18" offset="0" stop-color="rgb(255, 255, 255)"></stop><stop id="kity_stop_19" offset="1" stop-color="rgb(204, 204, 204)"></stop></linearGradient><marker id="kity_marker_2" orient="auto" refX="6" refY="0" viewBox="-7 -7 14 14" markerWidth="7" markerHeight="7" markerUnits="userSpaceOnUse"><path id="kity_path_3" fill="rgb(115, 191, 118)" stroke="none" d="M6,0A6,6,0,1,1,-6,0A6,6,0,1,1,6,0"></path></marker></defs><g id="kity_g_8"><g id="minder1" text-rendering="optimize-speed"><g id="minder_connect_group1"><path id="kity_path_31" fill="none" stroke="rgb(115, 191, 118)" stroke-width="1" d="M92.50001525133848,277.5000052973628A131,235,0,0,1,223.50001525133848,42.500005297362804"></path><path id="kity_path_35" fill="none" stroke="rgb(115, 191, 118)" stroke-width="1" d="M92.50001525133848,277.5000052973628A136,64,0,0,1,228.50001525133848,213.5000052973628"></path><path id="kity_path_43" fill="none" stroke="rgb(115, 191, 118)" stroke-width="1" d="M92.50001525133848,277.5000052973628A132,136,0,0,0,224.50001525133848,413.5000052973628"></path><path id="kity_path_49" fill="none" stroke="rgb(115, 191, 118)" stroke-width="1" d="M92.50001525133848,277.5000052973628A131,297,0,0,0,223.50001525133848,574.5000052973628"></path><path id="kity_path_144" fill="none" stroke="rgb(115, 191, 118)" stroke-width="1" d="M393.5000152513385,42.500005297362804C413.5000152513385,42.500005297362804,413.5000152513385,42.500005297362804,433.5000152513385,42.500005297362804"></path><path id="kity_path_145" fill="none" stroke="rgb(115, 191, 118)" stroke-width="1" d="M334.5000152513385,213.5000052973628C354.5000152513385,213.5000052973628,354.5000152513385,149.5000052973628,374.5000152513385,149.5000052973628"></path><path id="kity_path_146" fill="none" stroke="rgb(115, 191, 118)" stroke-width="1" d="M334.5000152513385,213.5000052973628C354.5000152513385,213.5000052973628,354.5000152513385,213.5000052973628,374.5000152513385,213.5000052973628"></path><path id="kity_path_147" fill="none" stroke="rgb(115, 191, 118)" stroke-width="1" d="M334.5000152513385,213.5000052973628C354.5000152513385,213.5000052973628,354.5000152513385,277.5000052973628,374.5000152513385,277.5000052973628"></path><path id="kity_path_150" fill="none" stroke="rgb(115, 191, 118)" stroke-width="1" d="M362.5000152513385,413.5000052973628C382.5000152513385,413.5000052973628,382.5000152513385,381.5000052973628,402.5000152513385,381.5000052973628"></path><path id="kity_path_151" fill="none" stroke="rgb(115, 191, 118)" stroke-width="1" d="M362.5000152513385,413.5000052973628C382.5000152513385,413.5000052973628,382.5000152513385,445.5000052973628,402.5000152513385,445.5000052973628"></path><path id="kity_path_152" fill="none" stroke="rgb(115, 191, 118)" stroke-width="1" d="M397.5000152513385,574.5000052973628C417.5000152513385,574.5000052973628,417.5000152513385,542.5000052973628,437.5000152513385,542.5000052973628"></path><path id="kity_path_153" fill="none" stroke="rgb(115, 191, 118)" stroke-width="1" d="M397.5000152513385,574.5000052973628C417.5000152513385,574.5000052973628,417.5000152513385,606.5000052973628,437.5000152513385,606.5000052973628"></path></g><g id="minder_node1"><path id="node_outline1" fill="rgb(115, 191, 118)" stroke="rgb(115, 191, 118)" d="M25.500015251338482,241.5000052973628h134a5,5,0,0,1,5,5v62a5,5,0,0,1,-5,5h-134a5,5,0,0,1,-5,-5v-62a5,5,0,0,1,5,-5z" stroke-width="3"></path><g id="node_text1" fill="white"><text id="kity_text_22" text-rendering="inherit" font-size="48" dy=".8em" y="246.30000519007444" x="44.50001525133848">执行</text></g></g><g id="kity_g_12" display="none"><path id="kity_path_13" fill="none" stroke="none" d="M44.50001525133848,277.5000052973628h0v0h0z"></path></g><g id="kity_g_14" display="none"><path id="kity_path_15" fill="none" stroke="none" d="M44.50001525133848,277.5000052973628h0v0h0z"></path><path id="kity_path_16" fill="none" stroke="none"></path></g><g id="minder_node2" opacity="1"><g id="node_expander2" style="cursor: pointer;"><path id="kity_path_102" fill="white" stroke="gray" d="M224.50001784414053,42.500001795589924A6,6,0,1,1,212.50001784414053,42.500001795589924A6,6,0,1,1,224.50001784414053,42.500001795589924"></path><path id="kity_path_103" fill="none" stroke="gray" d="M214.00001784414053,42.500001795589924L223.00001784414053,42.500001795589924"></path></g><path id="node_outline3" fill="rgb(238, 246, 238)" stroke="rgb(115, 191, 118)" d="M228.50001824647188,20.500001795589924h162a3,3,0,0,1,3,3v38a3,3,0,0,1,-3,3h-162a3,3,0,0,1,-3,-3v-38a3,3,0,0,1,3,-3z" stroke-width="1"></path><g id="node_text3" fill="black"><text id="kity_text_57" text-rendering="inherit" font-size="32" dy=".8em" y="21.70000172406435" x="245.50001824647188">普通运算</text></g></g><g id="minder_node4" opacity="1"><g id="node_expander6" style="cursor: pointer;"><path id="kity_path_114" fill="white" stroke="gray" d="M229.50001791864634,213.5000043436885A6,6,0,1,1,217.50001791864634,213.5000043436885A6,6,0,1,1,229.50001791864634,213.5000043436885"></path><path id="kity_path_115" fill="none" stroke="gray" d="M219.00001791864634,213.5000043436885L228.00001791864634,213.5000043436885"></path></g><path id="node_outline7" fill="rgb(238, 246, 238)" stroke="rgb(115, 191, 118)" d="M233.5000183209777,191.5000043436885h98a3,3,0,0,1,3,3v38a3,3,0,0,1,-3,3h-98a3,3,0,0,1,-3,-3v-38a3,3,0,0,1,3,-3z" stroke-width="1"></path><g id="node_text7" fill="black"><text id="kity_text_65" text-rendering="inherit" font-size="32" dy=".8em" y="192.70000427216291" x="250.5000183209777">访存</text></g></g><g id="minder_node8" opacity="1"><g id="node_expander9" style="cursor: pointer;"><path id="kity_path_123" fill="white" stroke="gray" d="M225.5000178590417,413.5000073239207A6,6,0,1,1,213.5000178590417,413.5000073239207A6,6,0,1,1,225.5000178590417,413.5000073239207"></path><path id="kity_path_124" fill="none" stroke="gray" d="M215.0000178590417,413.5000073239207L224.0000178590417,413.5000073239207"></path></g><path id="node_outline10" fill="rgb(238, 246, 238)" stroke="rgb(115, 191, 118)" d="M229.50001826137304,391.5000073239207h130a3,3,0,0,1,3,3v38a3,3,0,0,1,-3,3h-130a3,3,0,0,1,-3,-3v-38a3,3,0,0,1,3,-3z" stroke-width="1"></path><g id="node_text10" fill="black"><text id="kity_text_71" text-rendering="inherit" font-size="32" dy=".8em" y="392.70000725239515" x="246.50001826137304">多周期</text></g></g><g id="minder_node11" opacity="1"><g id="node_expander12" style="cursor: pointer;"><path id="kity_path_132" fill="white" stroke="gray" d="M224.50001784414053,574.5000097230077A6,6,0,1,1,212.50001784414053,574.5000097230077A6,6,0,1,1,224.50001784414053,574.5000097230077"></path><path id="kity_path_133" fill="none" stroke="gray" d="M214.00001784414053,574.5000097230077L223.00001784414053,574.5000097230077"></path></g><path id="node_outline13" fill="rgb(238, 246, 238)" stroke="rgb(115, 191, 118)" d="M228.50001824647188,552.5000097230077h166a3,3,0,0,1,3,3v38a3,3,0,0,1,-3,3h-166a3,3,0,0,1,-3,-3v-38a3,3,0,0,1,3,-3z" stroke-width="1"></path><g id="node_text13" fill="black"><text id="kity_text_77" text-rendering="inherit" font-size="32" dy=".8em" y="553.7000096514821" x="245.50001824647188">跳转</text></g><g id="kity_g_82"><g id="kity_g_83"><path id="kity_path_84" fill="rgb(179, 229, 255)" stroke="none" d="M314.500019274652,561.5000097081065h63v24h-63z"></path><text id="kity_text_85" text-rendering="geometricPrecision" font-size="12" dy="5" x="322.500019274652" fill="rgb(0, 50, 77)" y="573.5000097081065">advance</text></g><g id="kity_g_154" display="none"><path id="kity_path_155" fill="rgb(255, 212, 179)" stroke="none" d="M382.50002028793097,561.5000097081065h71v24h-71z"></path><text id="kity_text_156" text-rendering="geometricPrecision" font-size="12" dy="5" x="390.50002028793097" fill="rgb(77, 33, 0)" y="573.5000097081065">advanced</text></g><g id="kity_g_157" display="none"><path id="kity_path_158" fill="rgb(255, 212, 179)" stroke="none" d="M471.5000216141343,561.5000097081065h71v24h-71z"></path><text id="kity_text_159" text-rendering="geometricPrecision" font-size="12" dy="5" x="479.5000216141343" fill="rgb(77, 33, 0)" y="573.5000097081065">advanced</text></g></g></g><g id="minder_node3"><g id="node_expander1" style="cursor: pointer;" display="none"><path id="kity_path_99" fill="white" stroke="gray" d="M433.5000209584832,42.500001795589924A6,6,0,1,1,421.5000209584832,42.500001795589924A6,6,0,1,1,433.5000209584832,42.500001795589924"></path><path id="kity_path_100" fill="none" stroke="gray"></path></g><path id="node_outline2" fill="none" stroke="none" d="M438.5000211969018,25.500001795589924h129a5,5,0,0,1,5,5v24a5,5,0,0,1,-5,5h-129a5,5,0,0,1,-5,-5v-24a5,5,0,0,1,5,-5z" stroke-width="3"></path><g id="node_text2" fill="black"><text id="kity_text_55" text-rendering="inherit" font-size="24" dy=".8em" y="26.900001741945744" x="443.5000211969018">交ALU执行</text></g></g><g id="minder_node5"><g id="node_expander3" style="cursor: pointer;" display="none"><path id="kity_path_105" fill="white" stroke="gray" d="M374.5000200793147,149.50000339001417A6,6,0,1,1,362.5000200793147,149.50000339001417A6,6,0,1,1,374.5000200793147,149.50000339001417"></path><path id="kity_path_106" fill="none" stroke="gray"></path></g><path id="node_outline4" fill="none" stroke="none" d="M379.5000203177333,132.50000339001417h106a5,5,0,0,1,5,5v24a5,5,0,0,1,-5,5h-106a5,5,0,0,1,-5,-5v-24a5,5,0,0,1,5,-5z" stroke-width="3"></path><g id="node_text4" fill="black"><text id="kity_text_59" text-rendering="inherit" font-size="24" dy=".8em" y="133.90000333637" x="384.5000203177333">计算地址</text></g></g><g id="minder_node6"><g id="node_expander4" style="cursor: pointer;" display="none"><path id="kity_path_108" fill="white" stroke="gray" d="M374.5000200793147,213.5000043436885A6,6,0,1,1,362.5000200793147,213.5000043436885A6,6,0,1,1,374.5000200793147,213.5000043436885"></path><path id="kity_path_109" fill="none" stroke="gray"></path></g><path id="node_outline5" fill="none" stroke="none" d="M379.5000203177333,196.5000043436885h287a5,5,0,0,1,5,5v24a5,5,0,0,1,-5,5h-287a5,5,0,0,1,-5,-5v-24a5,5,0,0,1,5,-5z" stroke-width="3"></path><g id="node_text5" fill="black"><text id="kity_text_61" text-rendering="inherit" font-size="24" dy=".8em" y="197.9000042900443" x="384.5000203177333">生成Mask/Size等AXI参数</text></g></g><g id="minder_node7"><g id="node_expander5" style="cursor: pointer;" display="none"><path id="kity_path_111" fill="white" stroke="gray" d="M374.5000200793147,277.5000052973628A6,6,0,1,1,362.5000200793147,277.5000052973628A6,6,0,1,1,374.5000200793147,277.5000052973628"></path><path id="kity_path_112" fill="none" stroke="gray"></path></g><path id="node_outline6" fill="none" stroke="none" d="M379.5000203177333,260.5000052973628h202a5,5,0,0,1,5,5v24a5,5,0,0,1,-5,5h-202a5,5,0,0,1,-5,-5v-24a5,5,0,0,1,5,-5z" stroke-width="3"></path><g id="node_text6" fill="black"><text id="kity_text_63" text-rendering="inherit" font-size="24" dy=".8em" y="261.9000052437186" x="384.5000203177333">地址冲突检查</text></g><g id="kity_g_78"><g id="kity_g_79"><path id="kity_path_80" fill="rgb(255, 244, 179)" stroke="none" d="M534.5000225529075,264.50000528246164h42v24h-42z"></path><text id="kity_text_81" text-rendering="geometricPrecision" font-size="12" dy="5" x="542.5000225529075" fill="rgb(77, 65, 0)" y="276.50000528246164">初赛</text></g></g></g><g id="minder_node9"><g id="node_expander7" style="cursor: pointer;" display="none"><path id="kity_path_117" fill="white" stroke="gray" d="M402.5000204965472,381.50000684708357A6,6,0,1,1,390.5000204965472,381.50000684708357A6,6,0,1,1,402.5000204965472,381.50000684708357"></path><path id="kity_path_118" fill="none" stroke="gray"></path></g><path id="node_outline8" fill="none" stroke="none" d="M407.5000207349658,364.50000684708357h56a5,5,0,0,1,5,5v24a5,5,0,0,1,-5,5h-56a5,5,0,0,1,-5,-5v-24a5,5,0,0,1,5,-5z" stroke-width="3"></path><g id="node_text8" fill="black"><text id="kity_text_67" text-rendering="inherit" font-size="24" dy=".8em" y="365.9000067934394" x="412.5000207349658">stall</text></g></g><g id="minder_node10"><g id="node_expander8" style="cursor: pointer;" display="none"><path id="kity_path_120" fill="white" stroke="gray" d="M402.5000204965472,445.5000078007579A6,6,0,1,1,390.5000204965472,445.5000078007579A6,6,0,1,1,402.5000204965472,445.5000078007579"></path><path id="kity_path_121" fill="none" stroke="gray"></path></g><path id="node_outline9" fill="none" stroke="none" d="M407.5000207349658,428.5000078007579h183a5,5,0,0,1,5,5v24a5,5,0,0,1,-5,5h-183a5,5,0,0,1,-5,-5v-24a5,5,0,0,1,5,-5z" stroke-width="3"></path><g id="node_text9" fill="black"><text id="kity_text_69" text-rendering="inherit" font-size="24" dy=".8em" y="429.9000077471137" x="412.5000207349658">直接与HiLo交互</text></g></g><g id="minder_node12"><g id="node_expander10" style="cursor: pointer;" display="none"><path id="kity_path_126" fill="white" stroke="gray" d="M437.50002101808786,542.5000092461705A6,6,0,1,1,425.50002101808786,542.5000092461705A6,6,0,1,1,437.50002101808786,542.5000092461705"></path><path id="kity_path_127" fill="none" stroke="gray"></path></g><path id="node_outline11" fill="none" stroke="none" d="M442.50002125650644,525.5000092461705h154a5,5,0,0,1,5,5v24a5,5,0,0,1,-5,5h-154a5,5,0,0,1,-5,-5v-24a5,5,0,0,1,5,-5z" stroke-width="3"></path><g id="node_text11" fill="black"><text id="kity_text_73" text-rendering="inherit" font-size="24" dy=".8em" y="526.9000091925263" x="447.50002125650644">发出跳转信号</text></g></g><g id="minder_node13"><g id="node_expander11" style="cursor: pointer;" display="none"><path id="kity_path_129" fill="white" stroke="gray" d="M437.50002101808786,606.5000101998448A6,6,0,1,1,425.50002101808786,606.5000101998448A6,6,0,1,1,437.50002101808786,606.5000101998448"></path><path id="kity_path_130" fill="none" stroke="gray"></path></g><path id="node_outline12" fill="none" stroke="none" d="M442.50002125650644,589.5000101998448h154a5,5,0,0,1,5,5v24a5,5,0,0,1,-5,5h-154a5,5,0,0,1,-5,-5v-24a5,5,0,0,1,5,-5z" stroke-width="3"></path><g id="node_text12" fill="black"><text id="kity_text_75" text-rendering="inherit" font-size="24" dy=".8em" y="590.9000101462007" x="447.50002125650644">计算跳转地址</text></g></g></g></g></svg>