<svg id="kity_svg_6" xmlns="http://www.w3.org/2000/svg" xmlns:xlink="http://www.w3.org/1999/xlink" version="1.1" width="363" height="283" style="background: rgb(251, 251, 251); visibility: visible;" viewBox="0 0 363 283"><defs id="kity_defs_7"><linearGradient id="kity_linearGradient_17" x1="0" y1="0" x2="0" y2="1"><stop id="kity_stop_18" offset="0" stop-color="rgb(255, 255, 255)"></stop><stop id="kity_stop_19" offset="1" stop-color="rgb(204, 204, 204)"></stop></linearGradient><marker id="kity_marker_4" orient="auto" refX="6" refY="0" viewBox="-7 -7 14 14" markerWidth="7" markerHeight="7" markerUnits="userSpaceOnUse"><path id="kity_path_5" fill="rgb(191, 115, 115)" stroke="none" d="M6,0A6,6,0,1,1,-6,0A6,6,0,1,1,6,0"></path></marker><marker id="kity_marker_2" orient="auto" refX="6" refY="0" viewBox="-7 -7 14 14" markerWidth="7" markerHeight="7" markerUnits="userSpaceOnUse"><path id="kity_path_3" fill="rgb(115, 191, 118)" stroke="none" d="M6,0A6,6,0,1,1,-6,0A6,6,0,1,1,6,0"></path></marker></defs><g id="kity_g_8"><g id="minder1" text-rendering="optimize-speed"><g id="minder_connect_group1"><path id="kity_path_31" fill="none" stroke="rgb(115, 191, 118)" stroke-width="1" d="M49.0000150129199,140.500007070601A44.5,107,0,0,1,93.5000150129199,33.50000707060099"></path><path id="kity_path_39" fill="none" stroke="rgb(115, 191, 118)" stroke-width="1" d="M49.0000150129199,140.500007070601A44.5,37,0,0,1,93.5000150129199,103.50000707060099"></path><path id="kity_path_47" fill="none" stroke="rgb(115, 191, 118)" stroke-width="1" d="M49.0000150129199,140.500007070601A44.5,42,0,0,0,93.5000150129199,182.500007070601"></path><path id="kity_path_99" fill="none" stroke="rgb(115, 191, 118)" stroke-width="1" d="M49.0000150129199,140.500007070601A44.5,102,0,0,0,93.5000150129199,242.500007070601"></path><path id="kity_path_151" fill="none" stroke="rgb(115, 191, 118)" stroke-width="1" d="M164.5000150129199,103.50000707060099C172.5000150129199,103.50000707060099,172.5000150129199,71.50000707060099,180.5000150129199,71.50000707060099"></path><path id="kity_path_152" fill="none" stroke="rgb(115, 191, 118)" stroke-width="1" d="M164.5000150129199,103.50000707060099C172.5000150129199,103.50000707060099,172.5000150129199,97.50000707060099,180.5000150129199,97.50000707060099"></path><path id="kity_path_153" fill="none" stroke="rgb(115, 191, 118)" stroke-width="1" d="M164.5000150129199,103.50000707060099C175.0000150129199,103.50000707060099,175.0000150129199,119.50000707060099,185.5000150129199,119.50000707060099"></path><path id="kity_path_155" fill="none" stroke="rgb(115, 191, 118)" stroke-width="1" d="M192.5000150129199,33.50000707060099C200.5000150129199,33.50000707060099,200.5000150129199,33.50000707060099,208.5000150129199,33.50000707060099"></path><path id="kity_path_156" fill="none" stroke="rgb(115, 191, 118)" stroke-width="1" d="M177.5000150129199,182.500007070601C185.5000150129199,182.500007070601,185.5000150129199,169.500007070601,193.5000150129199,169.500007070601"></path><path id="kity_path_157" fill="none" stroke="rgb(115, 191, 118)" stroke-width="1" d="M177.5000150129199,182.500007070601C185.5000150129199,182.500007070601,185.5000150129199,195.500007070601,193.5000150129199,195.500007070601"></path><path id="kity_path_158" fill="none" stroke="rgb(115, 191, 118)" stroke-width="1" d="M243.5000150129199,242.500007070601C251.5000150129199,242.500007070601,251.5000150129199,229.500007070601,259.5000150129199,229.500007070601"></path><path id="kity_path_159" fill="none" stroke="rgb(115, 191, 118)" stroke-width="1" d="M243.5000150129199,242.500007070601C251.5000150129199,242.500007070601,251.5000150129199,255.500007070601,259.5000150129199,255.500007070601"></path></g><g id="minder_node1"><path id="kity_path_138" fill="rgba(0, 0, 0, .25)" stroke="none" d="M31.500015012919903,128.500007070601h58a5,5,0,0,1,5,5v24a5,5,0,0,1,-5,5h-58a5,5,0,0,1,-5,-5v-24a5,5,0,0,1,5,-5z" display="none"></path><path id="node_outline1" fill="rgb(115, 191, 118)" stroke="rgb(115, 191, 118)" d="M25.500015012919903,126.50000707060099h47a5,5,0,0,1,5,5v18a5,5,0,0,1,-5,5h-47a5,5,0,0,1,-5,-5v-18a5,5,0,0,1,5,-5z" stroke-width="3"></path><g id="node_text1" fill="white"><text id="kity_text_22" text-rendering="inherit" font-size="16" dy=".8em" y="130.1000070348382" x="32.5000150129199">执行</text></g></g><g id="kity_g_12" display="none"><path id="kity_path_13" fill="none" stroke="none" d="M32.5000150129199,140.500007070601h0v0h0z"></path></g><g id="kity_g_14" display="none"><path id="kity_path_15" fill="rgba(0, 153, 5, 0.5)" stroke="none" d="M333.5000150129199,181.500007070601h159v15h-159z"></path><path id="kity_path_16" fill="none" stroke="rgb(0, 128, 4)" d="M333.5000150129199,181.500007070601L492.5000150129199,181.500007070601" stroke-width="1"></path></g><g id="minder_node2" opacity="1"><path id="kity_path_134" fill="rgba(0, 0, 0, .25)" stroke="none" d="M114.50001624971628,26.50000547617674h75a5,5,0,0,1,5,5v14a5,5,0,0,1,-5,5h-75a5,5,0,0,1,-5,-5v-14a5,5,0,0,1,5,-5z" display="none"></path><g id="node_expander1" style="cursor: pointer;"><path id="kity_path_36" fill="white" stroke="gray" d="M94.50001584738493,33.50000547617674A6,6,0,1,1,82.50001584738493,33.50000547617674A6,6,0,1,1,94.50001584738493,33.50000547617674"></path><path id="kity_path_37" fill="none" stroke="gray" d="M84.00001584738493,33.50000547617674L93.00001584738493,33.50000547617674"></path></g><path id="node_outline2" fill="rgb(238, 246, 238)" stroke="rgb(115, 191, 118)" d="M98.50001624971628,20.50000547617674h91a3,3,0,0,1,3,3v20a3,3,0,0,1,-3,3h-91a3,3,0,0,1,-3,-3v-20a3,3,0,0,1,3,-3z" stroke-width="1"></path><g id="node_text2" fill="black"><text id="kity_text_33" text-rendering="inherit" font-size="14" dy=".8em" y="24.4000054448843" x="115.50001624971628">普通运算</text></g></g><g id="minder_node3" opacity="1"><path id="kity_path_135" fill="rgba(0, 0, 0, .25)" stroke="none" d="M114.50001624971628,96.50000651925802h43a5,5,0,0,1,5,5v14a5,5,0,0,1,-5,5h-43a5,5,0,0,1,-5,-5v-14a5,5,0,0,1,5,-5z" display="none"></path><g id="node_expander2" style="cursor: pointer;"><path id="kity_path_44" fill="white" stroke="gray" d="M94.50001584738493,103.50000651925802A6,6,0,1,1,82.50001584738493,103.50000651925802A6,6,0,1,1,94.50001584738493,103.50000651925802"></path><path id="kity_path_45" fill="none" stroke="gray" d="M84.00001584738493,103.50000651925802L93.00001584738493,103.50000651925802"></path></g><path id="node_outline3" fill="rgb(238, 246, 238)" stroke="rgb(115, 191, 118)" d="M98.50001624971628,90.50000651925802h63a3,3,0,0,1,3,3v20a3,3,0,0,1,-3,3h-63a3,3,0,0,1,-3,-3v-20a3,3,0,0,1,3,-3z" stroke-width="1"></path><g id="node_text3" fill="black"><text id="kity_text_41" text-rendering="inherit" font-size="14" dy=".8em" y="94.40000648796558" x="115.50001624971628">访存</text></g></g><g id="minder_node4" opacity="1"><path id="kity_path_136" fill="rgba(0, 0, 0, .25)" stroke="none" d="M114.50001624971628,175.50000769644976h58a5,5,0,0,1,5,5v14a5,5,0,0,1,-5,5h-58a5,5,0,0,1,-5,-5v-14a5,5,0,0,1,5,-5z" display="none"></path><g id="node_expander3" style="cursor: pointer;"><path id="kity_path_52" fill="white" stroke="gray" d="M94.50001584738493,182.50000769644976A6,6,0,1,1,82.50001584738493,182.50000769644976A6,6,0,1,1,94.50001584738493,182.50000769644976"></path><path id="kity_path_53" fill="none" stroke="gray" d="M84.00001584738493,182.50000769644976L93.00001584738493,182.50000769644976"></path></g><path id="node_outline4" fill="rgb(238, 246, 238)" stroke="rgb(115, 191, 118)" d="M98.50001624971628,169.50000769644976h76a3,3,0,0,1,3,3v20a3,3,0,0,1,-3,3h-76a3,3,0,0,1,-3,-3v-20a3,3,0,0,1,3,-3z" stroke-width="1"></path><g id="node_text4" fill="black"><text id="kity_text_49" text-rendering="inherit" font-size="14" dy=".8em" y="173.40000766515732" x="115.50001624971628">多周期</text></g></g><g id="minder_node10" opacity="1"><path id="kity_path_137" fill="rgba(0, 0, 0, .25)" stroke="none" d="M114.50001624971628,231.50000859051943h122a5,5,0,0,1,5,5v22a5,5,0,0,1,-5,5h-122a5,5,0,0,1,-5,-5v-22a5,5,0,0,1,5,-5z" display="none"></path><g id="node_expander9" style="cursor: pointer;"><path id="kity_path_104" fill="white" stroke="gray" d="M94.50001584738493,242.50000859051943A6,6,0,1,1,82.50001584738493,242.50000859051943A6,6,0,1,1,94.50001584738493,242.50000859051943"></path><path id="kity_path_105" fill="none" stroke="gray" d="M84.00001584738493,242.50000859051943L93.00001584738493,242.50000859051943"></path></g><path id="node_outline10" fill="rgb(238, 246, 238)" stroke="rgb(115, 191, 118)" d="M98.50001624971628,224.50000859051943h142a3,3,0,0,1,3,3v30a3,3,0,0,1,-3,3h-142a3,3,0,0,1,-3,-3v-30a3,3,0,0,1,3,-3z" stroke-width="1"></path><g id="node_text10" fill="black"><text id="kity_text_101" text-rendering="inherit" font-size="14" dy=".8em" y="233.400008559227" x="115.50001624971628">跳转</text></g><g id="kity_g_114"><g id="kity_g_115"><path id="kity_path_116" fill="rgb(236, 255, 179)" stroke="none" d="M149.50001675635576,229.50000857561827h74v24h-74z"></path><text id="kity_text_117" text-rendering="geometricPrecision" font-size="12" dy="5" x="157.50001675635576" fill="rgb(57, 77, 0)" y="241.50000857561827">Advanced</text></g></g></g><g id="minder_node6"><path id="kity_path_140" fill="rgba(0, 0, 0, .25)" stroke="none" d="M216.00001729279757,43.000006042420864h0a34,34,0,0,1,34,34v0a34,34,0,0,1,-34,34h0a34,34,0,0,1,-34,-34v0a34,34,0,0,1,34,-34z" display="none"></path><g id="node_expander5" style="cursor: pointer;" display="none"><path id="kity_path_68" fill="white" stroke="gray" d="M180.5000171288848,71.50000604242086A6,6,0,1,1,168.5000171288848,71.50000604242086A6,6,0,1,1,180.5000171288848,71.50000604242086"></path><path id="kity_path_69" fill="none" stroke="gray"></path></g><path id="node_outline6" fill="none" stroke="none" d="M185.50001729279757,62.500006042420864h50a5,5,0,0,1,5,5v8a5,5,0,0,1,-5,5h-50a5,5,0,0,1,-5,-5v-8a5,5,0,0,1,5,-5z" stroke-width="3"></path><g id="node_text6" fill="black"><text id="kity_text_65" text-rendering="inherit" font-size="12" dy=".8em" y="63.700006015598774" x="185.50001729279757">计算地址</text></g></g><g id="minder_node7"><path id="kity_path_141" fill="rgba(0, 0, 0, .25)" stroke="none" d="M264.50001729279757,22.000006429851055h0a81,81,0,0,1,81,81v0a81,81,0,0,1,-81,81h0a81,81,0,0,1,-81,-81v0a81,81,0,0,1,81,-81z" display="none"></path><g id="node_expander6" style="cursor: pointer;" display="none"><path id="kity_path_76" fill="white" stroke="gray" d="M180.5000171288848,97.50000642985106A6,6,0,1,1,168.5000171288848,97.50000642985106A6,6,0,1,1,180.5000171288848,97.50000642985106"></path><path id="kity_path_77" fill="none" stroke="gray"></path></g><path id="node_outline7" fill="none" stroke="none" d="M185.50001729279757,88.50000642985106h139a5,5,0,0,1,5,5v8a5,5,0,0,1,-5,5h-139a5,5,0,0,1,-5,-5v-8a5,5,0,0,1,5,-5z" stroke-width="3"></path><g id="node_text7" fill="black"><text id="kity_text_73" text-rendering="inherit" font-size="12" dy=".8em" y="89.70000640302896" x="185.50001729279757">生成Mask/Size等AXI参数</text></g></g><g id="minder_node8" opacity="1"><path id="kity_path_142" fill="rgba(0, 0, 0, .25)" stroke="none" d="M263.50001736730337,48.5000067576766h0a76,76,0,0,1,76,76v0a76,76,0,0,1,-76,76h0a76,76,0,0,1,-76,-76v0a76,76,0,0,1,76,-76z" display="none"></path><g id="node_expander7" style="cursor: pointer;" display="none"><path id="kity_path_84" fill="white" stroke="gray" d="M185.5000172033906,119.5000067576766A6,6,0,1,1,173.5000172033906,119.5000067576766A6,6,0,1,1,185.5000172033906,119.5000067576766"></path><path id="kity_path_85" fill="none" stroke="gray"></path></g><path id="node_outline8" fill="none" stroke="none" d="M190.50001736730337,104.5000067576766h121a5,5,0,0,1,5,5v20a5,5,0,0,1,-5,5h-121a5,5,0,0,1,-5,-5v-20a5,5,0,0,1,5,-5z" stroke-width="3"></path><g id="node_text8" fill="black"><text id="kity_text_81" text-rendering="inherit" font-size="12" dy=".8em" y="111.70000673085451" x="190.50001736730337">地址冲突检查</text></g><g id="kity_g_86"><g id="kity_g_87"><path id="kity_path_88" fill="rgb(179, 229, 255)" stroke="none" d="M269.5000185444951,106.50000674277544h42v24h-42z"></path><text id="kity_text_89" text-rendering="geometricPrecision" font-size="12" dy="5" x="277.5000185444951" fill="rgb(0, 50, 77)" y="118.50000674277544">初赛</text></g></g></g><g id="minder_node5"><path id="kity_path_139" fill="rgba(0, 0, 0, .25)" stroke="none" d="M250.00001771003008,0.000005476176738739014h0a39,39,0,0,1,39,39v0a39,39,0,0,1,-39,39h0a39,39,0,0,1,-39,-39v0a39,39,0,0,1,39,-39z" display="none"></path><g id="node_expander4" style="cursor: pointer;" display="none"><path id="kity_path_60" fill="white" stroke="gray" d="M208.5000175461173,33.50000547617674A6,6,0,1,1,196.5000175461173,33.50000547617674A6,6,0,1,1,208.5000175461173,33.50000547617674"></path><path id="kity_path_61" fill="none" stroke="gray"></path></g><path id="node_outline5" fill="none" stroke="none" d="M213.50001771003008,24.50000547617674h60a5,5,0,0,1,5,5v8a5,5,0,0,1,-5,5h-60a5,5,0,0,1,-5,-5v-8a5,5,0,0,1,5,-5z" stroke-width="3"></path><g id="node_text5" fill="black"><text id="kity_text_57" text-rendering="inherit" font-size="12" dy=".8em" y="25.70000544935465" x="213.50001771003008">交ALU执行</text></g></g><g id="minder_node9"><path id="kity_path_143" fill="rgba(0, 0, 0, .25)" stroke="none" d="M215.00001748651266,154.00000750273466h0a21,21,0,0,1,21,21v0a21,21,0,0,1,-21,21h0a21,21,0,0,1,-21,-21v0a21,21,0,0,1,21,-21z" display="none"></path><g id="node_expander8" style="cursor: pointer;" display="none"><path id="kity_path_96" fill="white" stroke="gray" d="M193.5000173225999,169.50000750273466A6,6,0,1,1,181.5000173225999,169.50000750273466A6,6,0,1,1,193.5000173225999,169.50000750273466"></path><path id="kity_path_97" fill="none" stroke="gray"></path></g><path id="node_outline9" fill="none" stroke="none" d="M198.50001748651266,160.50000750273466h23a5,5,0,0,1,5,5v8a5,5,0,0,1,-5,5h-23a5,5,0,0,1,-5,-5v-8a5,5,0,0,1,5,-5z" stroke-width="3"></path><g id="node_text9" fill="black"><text id="kity_text_93" text-rendering="inherit" font-size="12" dy=".8em" y="161.70000747591257" x="198.50001748651266">stall</text></g></g><g id="minder_node11"><path id="kity_path_144" fill="rgba(0, 0, 0, .25)" stroke="none" d="M249.00001748651266,148.00000789016485h0a53,53,0,0,1,53,53v0a53,53,0,0,1,-53,53h0a53,53,0,0,1,-53,-53v0a53,53,0,0,1,53,-53z" display="none"></path><g id="node_expander10" style="cursor: pointer;" display="none"><path id="kity_path_112" fill="white" stroke="gray" d="M193.5000173225999,195.50000789016485A6,6,0,1,1,181.5000173225999,195.50000789016485A6,6,0,1,1,193.5000173225999,195.50000789016485"></path><path id="kity_path_113" fill="none" stroke="gray"></path></g><path id="node_outline11" fill="none" stroke="none" d="M198.50001748651266,186.50000789016485h87a5,5,0,0,1,5,5v8a5,5,0,0,1,-5,5h-87a5,5,0,0,1,-5,-5v-8a5,5,0,0,1,5,-5z" stroke-width="3"></path><g id="node_text11" fill="black"><text id="kity_text_109" text-rendering="inherit" font-size="12" dy=".8em" y="187.70000786334276" x="198.50001748651266">直接与HiLo交互</text></g></g><g id="minder_node12"><path id="kity_path_145" fill="rgba(0, 0, 0, .25)" stroke="none" d="M308.0000184699893,189.00000839680433h0a46,46,0,0,1,46,46v0a46,46,0,0,1,-46,46h0a46,46,0,0,1,-46,-46v0a46,46,0,0,1,46,-46z" display="none"></path><g id="node_expander11" style="cursor: pointer;" display="none"><path id="kity_path_124" fill="white" stroke="gray" d="M259.5000183060765,229.50000839680433A6,6,0,1,1,247.50001830607653,229.50000839680433A6,6,0,1,1,259.5000183060765,229.50000839680433"></path><path id="kity_path_125" fill="none" stroke="gray"></path></g><path id="node_outline12" fill="none" stroke="none" d="M264.5000184699893,220.50000839680433h74a5,5,0,0,1,5,5v8a5,5,0,0,1,-5,5h-74a5,5,0,0,1,-5,-5v-8a5,5,0,0,1,5,-5z" stroke-width="3"></path><g id="node_text12" fill="black"><text id="kity_text_121" text-rendering="inherit" font-size="12" dy=".8em" y="221.70000836998224" x="264.5000184699893">发出跳转信号</text></g></g><g id="minder_node13"><path id="kity_path_146" fill="rgba(0, 0, 0, .25)" stroke="none" d="M308.0000184699893,215.00000878423452h0a46,46,0,0,1,46,46v0a46,46,0,0,1,-46,46h0a46,46,0,0,1,-46,-46v0a46,46,0,0,1,46,-46z" display="none"></path><g id="node_expander12" style="cursor: pointer;" display="none"><path id="kity_path_132" fill="white" stroke="gray" d="M259.5000183060765,255.50000878423452A6,6,0,1,1,247.50001830607653,255.50000878423452A6,6,0,1,1,259.5000183060765,255.50000878423452"></path><path id="kity_path_133" fill="none" stroke="gray"></path></g><path id="node_outline13" fill="none" stroke="none" d="M264.5000184699893,246.50000878423452h74a5,5,0,0,1,5,5v8a5,5,0,0,1,-5,5h-74a5,5,0,0,1,-5,-5v-8a5,5,0,0,1,5,-5z" stroke-width="3"></path><g id="node_text13" fill="black"><text id="kity_text_129" text-rendering="inherit" font-size="12" dy=".8em" y="247.70000875741243" x="264.5000184699893">计算跳转地址</text></g></g></g></g></svg>