<svg id="kity_svg_6" xmlns="http://www.w3.org/2000/svg" xmlns:xlink="http://www.w3.org/1999/xlink" version="1.1" width="454" height="482" style="background: rgb(251, 251, 251); visibility: visible;" viewBox="0 0 454 482"><defs id="kity_defs_7"><linearGradient id="kity_linearGradient_17" x1="0" y1="0" x2="0" y2="1"><stop id="kity_stop_18" offset="0" stop-color="rgb(255, 255, 255)"></stop><stop id="kity_stop_19" offset="1" stop-color="rgb(204, 204, 204)"></stop></linearGradient><marker id="kity_marker_4" orient="auto" refX="6" refY="0" viewBox="-7 -7 14 14" markerWidth="7" markerHeight="7" markerUnits="userSpaceOnUse"><path id="kity_path_5" fill="rgb(191, 115, 115)" stroke="none" d="M6,0A6,6,0,1,1,-6,0A6,6,0,1,1,6,0"></path></marker><marker id="kity_marker_2" orient="auto" refX="6" refY="0" viewBox="-7 -7 14 14" markerWidth="7" markerHeight="7" markerUnits="userSpaceOnUse"><path id="kity_path_3" fill="rgb(115, 191, 118)" stroke="none" d="M6,0A6,6,0,1,1,-6,0A6,6,0,1,1,6,0"></path></marker></defs><g id="kity_g_8"><g id="minder1" text-rendering="optimize-speed"><g id="minder_connect_group1"><path id="kity_path_31" fill="none" stroke="rgb(115, 191, 118)" stroke-width="1" d="M61.0000150129199,229.50000528246164A87.5,196,0,0,1,148.5000150129199,33.50000528246164"></path><path id="kity_path_39" fill="none" stroke="rgb(115, 191, 118)" stroke-width="1" d="M61.0000150129199,229.50000528246164A91.5,71,0,0,1,152.5000150129199,158.50000528246164"></path><path id="kity_path_47" fill="none" stroke="rgb(115, 191, 118)" stroke-width="1" d="M61.0000150129199,229.50000528246164A88.5,71,0,0,0,149.5000150129199,300.50000528246164"></path><path id="kity_path_99" fill="none" stroke="rgb(115, 191, 118)" stroke-width="1" d="M61.0000150129199,229.50000528246164A89.5,196,0,0,0,150.5000150129199,425.50000528246164"></path><path id="kity_path_160" fill="none" stroke="rgb(115, 191, 118)" stroke-width="1" d="M223.5000150129199,158.50000528246164C243.5000150129199,158.50000528246164,243.5000150129199,100.50000528246164,263.5000150129199,100.50000528246164"></path><path id="kity_path_161" fill="none" stroke="rgb(115, 191, 118)" stroke-width="1" d="M223.5000150129199,158.50000528246164C243.5000150129199,158.50000528246164,243.5000150129199,152.50000528246164,263.5000150129199,152.50000528246164"></path><path id="kity_path_162" fill="none" stroke="rgb(115, 191, 118)" stroke-width="1" d="M223.5000150129199,158.50000528246164C243.5000150129199,158.50000528246164,243.5000150129199,210.50000528246164,263.5000150129199,210.50000528246164"></path><path id="kity_path_163" fill="none" stroke="rgb(115, 191, 118)" stroke-width="1" d="M247.5000150129199,33.50000528246164C267.5000150129199,33.50000528246164,267.5000150129199,33.50000528246164,287.5000150129199,33.50000528246164"></path><path id="kity_path_164" fill="none" stroke="rgb(115, 191, 118)" stroke-width="1" d="M233.5000150129199,300.50000528246164C253.5000150129199,300.50000528246164,253.5000150129199,274.50000528246164,273.5000150129199,274.50000528246164"></path><path id="kity_path_165" fill="none" stroke="rgb(115, 191, 118)" stroke-width="1" d="M233.5000150129199,300.50000528246164C253.5000150129199,300.50000528246164,253.5000150129199,326.50000528246164,273.5000150129199,326.50000528246164"></path><path id="kity_path_166" fill="none" stroke="rgb(115, 191, 118)" stroke-width="1" d="M300.5000150129199,425.50000528246164C320.5000150129199,425.50000528246164,320.5000150129199,399.50000528246164,340.5000150129199,399.50000528246164"></path><path id="kity_path_167" fill="none" stroke="rgb(115, 191, 118)" stroke-width="1" d="M300.5000150129199,425.50000528246164C320.5000150129199,425.50000528246164,320.5000150129199,451.50000528246164,340.5000150129199,451.50000528246164"></path></g><g id="minder_node1"><path id="kity_path_138" fill="rgba(0, 0, 0, .25)" stroke="none" d="M43.5000150129199,217.50000528246164h58a5,5,0,0,1,5,5v24a5,5,0,0,1,-5,5h-58a5,5,0,0,1,-5,-5v-24a5,5,0,0,1,5,-5z" display="none"></path><path id="node_outline1" fill="rgb(115, 191, 118)" stroke="rgb(115, 191, 118)" d="M25.500015012919903,209.50000528246164h71a5,5,0,0,1,5,5v30a5,5,0,0,1,-5,5h-71a5,5,0,0,1,-5,-5v-30a5,5,0,0,1,5,-5z" stroke-width="3"></path><g id="node_text1" fill="white"><text id="kity_text_22" text-rendering="inherit" font-size="16" dy=".8em" y="219.10000524669886" x="44.5000150129199">执行</text></g></g><g id="kity_g_12" display="none"><path id="kity_path_13" fill="none" stroke="none" d="M44.5000150129199,229.50000528246164h0v0h0z"></path></g><g id="kity_g_14" display="none"><path id="kity_path_15" fill="rgba(0, 153, 5, 0.5)" stroke="none" d="M345.5000150129199,270.50000528246164h159v15h-159z"></path><path id="kity_path_16" fill="none" stroke="rgb(0, 128, 4)" d="M345.5000150129199,270.50000528246164L504.5000150129199,270.50000528246164" stroke-width="1"></path></g><g id="minder_node2" opacity="1"><path id="kity_path_134" fill="rgba(0, 0, 0, .25)" stroke="none" d="M169.5000168904662,26.50000236183405h75a5,5,0,0,1,5,5v14a5,5,0,0,1,-5,5h-75a5,5,0,0,1,-5,-5v-14a5,5,0,0,1,5,-5z" display="none"></path><g id="node_expander1" style="cursor: pointer;"><path id="kity_path_36" fill="white" stroke="gray" d="M149.50001648813486,33.50000236183405A6,6,0,1,1,137.50001648813486,33.50000236183405A6,6,0,1,1,149.50001648813486,33.50000236183405"></path><path id="kity_path_37" fill="none" stroke="gray" d="M139.00001648813486,33.50000236183405L148.00001648813486,33.50000236183405"></path></g><path id="node_outline2" fill="rgb(238, 246, 238)" stroke="rgb(115, 191, 118)" d="M153.5000168904662,20.50000236183405h91a3,3,0,0,1,3,3v20a3,3,0,0,1,-3,3h-91a3,3,0,0,1,-3,-3v-20a3,3,0,0,1,3,-3z" stroke-width="1"></path><g id="node_text2" fill="black"><text id="kity_text_33" text-rendering="inherit" font-size="14" dy=".8em" y="24.40000233054161" x="170.5000168904662">普通运算</text></g></g><g id="minder_node3" opacity="1"><path id="kity_path_135" fill="rgba(0, 0, 0, .25)" stroke="none" d="M173.50001695007086,151.5000042244792h43a5,5,0,0,1,5,5v14a5,5,0,0,1,-5,5h-43a5,5,0,0,1,-5,-5v-14a5,5,0,0,1,5,-5z" display="none"></path><g id="node_expander2" style="cursor: pointer;"><path id="kity_path_44" fill="white" stroke="gray" d="M153.5000165477395,158.5000042244792A6,6,0,1,1,141.5000165477395,158.5000042244792A6,6,0,1,1,153.5000165477395,158.5000042244792"></path><path id="kity_path_45" fill="none" stroke="gray" d="M143.0000165477395,158.5000042244792L152.0000165477395,158.5000042244792"></path></g><path id="node_outline3" fill="rgb(238, 246, 238)" stroke="rgb(115, 191, 118)" d="M157.50001695007086,145.5000042244792h63a3,3,0,0,1,3,3v20a3,3,0,0,1,-3,3h-63a3,3,0,0,1,-3,-3v-20a3,3,0,0,1,3,-3z" stroke-width="1"></path><g id="node_text3" fill="black"><text id="kity_text_41" text-rendering="inherit" font-size="14" dy=".8em" y="149.40000419318676" x="174.50001695007086">访存</text></g></g><g id="minder_node4" opacity="1"><path id="kity_path_136" fill="rgba(0, 0, 0, .25)" stroke="none" d="M170.50001690536737,293.5000063404441h58a5,5,0,0,1,5,5v14a5,5,0,0,1,-5,5h-58a5,5,0,0,1,-5,-5v-14a5,5,0,0,1,5,-5z" display="none"></path><g id="node_expander3" style="cursor: pointer;"><path id="kity_path_52" fill="white" stroke="gray" d="M150.50001650303602,300.5000063404441A6,6,0,1,1,138.50001650303602,300.5000063404441A6,6,0,1,1,150.50001650303602,300.5000063404441"></path><path id="kity_path_53" fill="none" stroke="gray" d="M140.00001650303602,300.5000063404441L149.00001650303602,300.5000063404441"></path></g><path id="node_outline4" fill="rgb(238, 246, 238)" stroke="rgb(115, 191, 118)" d="M154.50001690536737,287.5000063404441h76a3,3,0,0,1,3,3v20a3,3,0,0,1,-3,3h-76a3,3,0,0,1,-3,-3v-20a3,3,0,0,1,3,-3z" stroke-width="1"></path><g id="node_text4" fill="black"><text id="kity_text_49" text-rendering="inherit" font-size="14" dy=".8em" y="291.40000630915165" x="171.50001690536737">多周期</text></g></g><g id="minder_node10" opacity="1"><path id="kity_path_137" fill="rgba(0, 0, 0, .25)" stroke="none" d="M171.50001692026854,414.50000820308924h122a5,5,0,0,1,5,5v22a5,5,0,0,1,-5,5h-122a5,5,0,0,1,-5,-5v-22a5,5,0,0,1,5,-5z" display="none"></path><g id="node_expander9" style="cursor: pointer;"><path id="kity_path_104" fill="white" stroke="gray" d="M151.50001651793718,425.50000820308924A6,6,0,1,1,139.50001651793718,425.50000820308924A6,6,0,1,1,151.50001651793718,425.50000820308924"></path><path id="kity_path_105" fill="none" stroke="gray" d="M141.00001651793718,425.50000820308924L150.00001651793718,425.50000820308924"></path></g><path id="node_outline10" fill="rgb(238, 246, 238)" stroke="rgb(115, 191, 118)" d="M155.50001692026854,407.50000820308924h142a3,3,0,0,1,3,3v30a3,3,0,0,1,-3,3h-142a3,3,0,0,1,-3,-3v-30a3,3,0,0,1,3,-3z" stroke-width="1"></path><g id="node_text10" fill="black"><text id="kity_text_101" text-rendering="inherit" font-size="14" dy=".8em" y="416.4000081717968" x="172.50001692026854">跳转</text></g><g id="kity_g_114"><g id="kity_g_115"><path id="kity_path_116" fill="rgb(236, 255, 179)" stroke="none" d="M206.50001742690802,412.5000081881881h74v24h-74z"></path><text id="kity_text_117" text-rendering="geometricPrecision" font-size="12" dy="5" x="214.50001742690802" fill="rgb(57, 77, 0)" y="424.5000081881881">Advanced</text></g></g></g><g id="minder_node6"><path id="kity_path_140" fill="rgba(0, 0, 0, .25)" stroke="none" d="M304.0000184252858,72.00000336021185h0a34,34,0,0,1,34,34v0a34,34,0,0,1,-34,34h0a34,34,0,0,1,-34,-34v0a34,34,0,0,1,34,-34z" display="none"></path><g id="node_expander5" style="cursor: pointer;" display="none"><path id="kity_path_68" fill="white" stroke="gray" d="M263.50001818686724,100.50000336021185A6,6,0,1,1,251.50001818686724,100.50000336021185A6,6,0,1,1,263.50001818686724,100.50000336021185"></path><path id="kity_path_69" fill="none" stroke="gray"></path></g><path id="node_outline6" fill="none" stroke="none" d="M268.5000184252858,89.50000336021185h60a5,5,0,0,1,5,5v12a5,5,0,0,1,-5,5h-60a5,5,0,0,1,-5,-5v-12a5,5,0,0,1,5,-5z" stroke-width="3"></path><g id="node_text6" fill="black"><text id="kity_text_65" text-rendering="inherit" font-size="12" dy=".8em" y="92.70000333338976" x="273.5000184252858">计算地址</text></g></g><g id="minder_node7"><path id="kity_path_141" fill="rgba(0, 0, 0, .25)" stroke="none" d="M352.5000184252858,77.00000413507223h0a81,81,0,0,1,81,81v0a81,81,0,0,1,-81,81h0a81,81,0,0,1,-81,-81v0a81,81,0,0,1,81,-81z" display="none"></path><g id="node_expander6" style="cursor: pointer;" display="none"><path id="kity_path_76" fill="white" stroke="gray" d="M263.50001818686724,152.50000413507223A6,6,0,1,1,251.50001818686724,152.50000413507223A6,6,0,1,1,263.50001818686724,152.50000413507223"></path><path id="kity_path_77" fill="none" stroke="gray"></path></g><path id="node_outline7" fill="none" stroke="none" d="M268.5000184252858,141.50000413507223h149a5,5,0,0,1,5,5v12a5,5,0,0,1,-5,5h-149a5,5,0,0,1,-5,-5v-12a5,5,0,0,1,5,-5z" stroke-width="3"></path><g id="node_text7" fill="black"><text id="kity_text_73" text-rendering="inherit" font-size="12" dy=".8em" y="144.70000410825014" x="273.5000184252858">生成Mask/Size等AXI参数</text></g></g><g id="minder_node8" opacity="1"><path id="kity_path_142" fill="rgba(0, 0, 0, .25)" stroke="none" d="M346.5000184252858,139.50000499933958h0a76,76,0,0,1,76,76v0a76,76,0,0,1,-76,76h0a76,76,0,0,1,-76,-76v0a76,76,0,0,1,76,-76z" display="none"></path><g id="node_expander7" style="cursor: pointer;" display="none"><path id="kity_path_84" fill="white" stroke="gray" d="M263.50001818686724,210.50000499933958A6,6,0,1,1,251.50001818686724,210.50000499933958A6,6,0,1,1,263.50001818686724,210.50000499933958"></path><path id="kity_path_85" fill="none" stroke="gray"></path></g><path id="node_outline8" fill="none" stroke="none" d="M268.5000184252858,193.50000499933958h131a5,5,0,0,1,5,5v24a5,5,0,0,1,-5,5h-131a5,5,0,0,1,-5,-5v-24a5,5,0,0,1,5,-5z" stroke-width="3"></path><g id="node_text8" fill="black"><text id="kity_text_81" text-rendering="inherit" font-size="12" dy=".8em" y="202.7000049725175" x="273.5000184252858">地址冲突检查</text></g><g id="kity_g_86"><g id="kity_g_87"><path id="kity_path_88" fill="rgb(179, 229, 255)" stroke="none" d="M352.50001960247755,197.50000498443842h42v24h-42z"></path><text id="kity_text_89" text-rendering="geometricPrecision" font-size="12" dy="5" x="360.50001960247755" fill="rgb(0, 50, 77)" y="209.50000498443842">初赛</text></g></g></g><g id="minder_node5"><path id="kity_path_139" fill="rgba(0, 0, 0, .25)" stroke="none" d="M334.0000187829137,0.0000023618340492248535h0a39,39,0,0,1,39,39v0a39,39,0,0,1,-39,39h0a39,39,0,0,1,-39,-39v0a39,39,0,0,1,39,-39z" display="none"></path><g id="node_expander4" style="cursor: pointer;" display="none"><path id="kity_path_60" fill="white" stroke="gray" d="M287.5000185444951,33.50000236183405A6,6,0,1,1,275.5000185444951,33.50000236183405A6,6,0,1,1,287.5000185444951,33.50000236183405"></path><path id="kity_path_61" fill="none" stroke="gray"></path></g><path id="node_outline5" fill="none" stroke="none" d="M292.5000187829137,22.50000236183405h70a5,5,0,0,1,5,5v12a5,5,0,0,1,-5,5h-70a5,5,0,0,1,-5,-5v-12a5,5,0,0,1,5,-5z" stroke-width="3"></path><g id="node_text5" fill="black"><text id="kity_text_57" text-rendering="inherit" font-size="12" dy=".8em" y="25.70000233501196" x="297.5000187829137">交ALU执行</text></g></g><g id="minder_node9"><path id="kity_path_143" fill="rgba(0, 0, 0, .25)" stroke="none" d="M300.0000185742974,259.0000059530139h0a21,21,0,0,1,21,21v0a21,21,0,0,1,-21,21h0a21,21,0,0,1,-21,-21v0a21,21,0,0,1,21,-21z" display="none"></path><g id="node_expander8" style="cursor: pointer;" display="none"><path id="kity_path_96" fill="white" stroke="gray" d="M273.50001833587885,274.5000059530139A6,6,0,1,1,261.50001833587885,274.5000059530139A6,6,0,1,1,273.50001833587885,274.5000059530139"></path><path id="kity_path_97" fill="none" stroke="gray"></path></g><path id="node_outline9" fill="none" stroke="none" d="M278.5000185742974,263.5000059530139h33a5,5,0,0,1,5,5v12a5,5,0,0,1,-5,5h-33a5,5,0,0,1,-5,-5v-12a5,5,0,0,1,5,-5z" stroke-width="3"></path><g id="node_text9" fill="black"><text id="kity_text_93" text-rendering="inherit" font-size="12" dy=".8em" y="266.7000059261918" x="283.5000185742974">stall</text></g></g><g id="minder_node11"><path id="kity_path_144" fill="rgba(0, 0, 0, .25)" stroke="none" d="M334.0000185742974,279.0000067278743h0a53,53,0,0,1,53,53v0a53,53,0,0,1,-53,53h0a53,53,0,0,1,-53,-53v0a53,53,0,0,1,53,-53z" display="none"></path><g id="node_expander10" style="cursor: pointer;" display="none"><path id="kity_path_112" fill="white" stroke="gray" d="M273.50001833587885,326.5000067278743A6,6,0,1,1,261.50001833587885,326.5000067278743A6,6,0,1,1,273.50001833587885,326.5000067278743"></path><path id="kity_path_113" fill="none" stroke="gray"></path></g><path id="node_outline11" fill="none" stroke="none" d="M278.5000185742974,315.5000067278743h97a5,5,0,0,1,5,5v12a5,5,0,0,1,-5,5h-97a5,5,0,0,1,-5,-5v-12a5,5,0,0,1,5,-5z" stroke-width="3"></path><g id="node_text11" fill="black"><text id="kity_text_109" text-rendering="inherit" font-size="12" dy=".8em" y="318.7000067010522" x="283.5000185742974">直接与HiLo交互</text></g></g><g id="minder_node12"><path id="kity_path_145" fill="rgba(0, 0, 0, .25)" stroke="none" d="M394.0000195726752,359.00000781565905h0a46,46,0,0,1,46,46v0a46,46,0,0,1,-46,46h0a46,46,0,0,1,-46,-46v0a46,46,0,0,1,46,-46z" display="none"></path><g id="node_expander11" style="cursor: pointer;" display="none"><path id="kity_path_124" fill="white" stroke="gray" d="M340.50001933425665,399.50000781565905A6,6,0,1,1,328.50001933425665,399.50000781565905A6,6,0,1,1,340.50001933425665,399.50000781565905"></path><path id="kity_path_125" fill="none" stroke="gray"></path></g><path id="node_outline12" fill="none" stroke="none" d="M345.5000195726752,388.50000781565905h84a5,5,0,0,1,5,5v12a5,5,0,0,1,-5,5h-84a5,5,0,0,1,-5,-5v-12a5,5,0,0,1,5,-5z" stroke-width="3"></path><g id="node_text12" fill="black"><text id="kity_text_121" text-rendering="inherit" font-size="12" dy=".8em" y="391.70000778883696" x="350.5000195726752">发出跳转信号</text></g></g><g id="minder_node13"><path id="kity_path_146" fill="rgba(0, 0, 0, .25)" stroke="none" d="M394.0000195726752,411.0000085905194h0a46,46,0,0,1,46,46v0a46,46,0,0,1,-46,46h0a46,46,0,0,1,-46,-46v0a46,46,0,0,1,46,-46z" display="none"></path><g id="node_expander12" style="cursor: pointer;" display="none"><path id="kity_path_132" fill="white" stroke="gray" d="M340.50001933425665,451.5000085905194A6,6,0,1,1,328.50001933425665,451.5000085905194A6,6,0,1,1,340.50001933425665,451.5000085905194"></path><path id="kity_path_133" fill="none" stroke="gray"></path></g><path id="node_outline13" fill="none" stroke="none" d="M345.5000195726752,440.5000085905194h84a5,5,0,0,1,5,5v12a5,5,0,0,1,-5,5h-84a5,5,0,0,1,-5,-5v-12a5,5,0,0,1,5,-5z" stroke-width="3"></path><g id="node_text13" fill="black"><text id="kity_text_129" text-rendering="inherit" font-size="12" dy=".8em" y="443.70000856369734" x="350.5000195726752">计算跳转地址</text></g></g></g></g></svg>