<svg id="kity_svg_6" xmlns="http://www.w3.org/2000/svg" xmlns:xlink="http://www.w3.org/1999/xlink" version="1.1" width="928" height="230" style="background: rgb(251, 251, 251); visibility: visible;" viewBox="0 0 928 230"><defs id="kity_defs_7"><linearGradient id="kity_linearGradient_17" x1="0" y1="0" x2="0" y2="1"><stop id="kity_stop_18" offset="0" stop-color="rgb(255, 255, 255)"></stop><stop id="kity_stop_19" offset="1" stop-color="rgb(204, 204, 204)"></stop></linearGradient><marker id="kity_marker_4" orient="auto" refX="6" refY="0" viewBox="-7 -7 14 14" markerWidth="7" markerHeight="7" markerUnits="userSpaceOnUse"><path id="kity_path_5" fill="rgb(191, 115, 115)" stroke="none" d="M6,0A6,6,0,1,1,-6,0A6,6,0,1,1,6,0"></path></marker><marker id="kity_marker_2" orient="auto" refX="6" refY="0" viewBox="-7 -7 14 14" markerWidth="7" markerHeight="7" markerUnits="userSpaceOnUse"><path id="kity_path_3" fill="rgb(115, 191, 118)" stroke="none" d="M6,0A6,6,0,1,1,-6,0A6,6,0,1,1,6,0"></path></marker></defs><g id="kity_g_8"><g id="minder1" text-rendering="optimize-speed"><g id="minder_connect_group1"><path id="kity_path_31" fill="none" stroke="rgb(115, 191, 118)" stroke-width="1" d="M465.0000150129199,117.50000707060099A161.5,61,0,0,1,626.5000150129199,56.50000707060099"></path><path id="kity_path_39" fill="none" stroke="rgb(115, 191, 118)" stroke-width="1" d="M465.0000150129199,117.50000707060099A173.5,31,0,0,0,638.5000150129199,148.500007070601"></path><path id="kity_path_47" fill="none" stroke="rgb(115, 191, 118)" stroke-width="1" d="M465.0000150129199,117.50000707060099A133.5,60,0,0,0,331.5000150129199,57.50000707060099"></path><path id="kity_path_99" fill="none" stroke="rgb(115, 191, 118)" stroke-width="1" d="M465.0000150129199,117.50000707060099A160.5,29,0,0,1,304.5000150129199,146.500007070601"></path><path id="kity_path_151" fill="none" stroke="rgb(115, 191, 118)" stroke-width="1" d="M709.5000150129199,148.500007070601C724.5000150129199,148.500007070601,724.5000150129199,104.50000707060099,739.5000150129199,104.50000707060099L819.5000150129199,104.50000707060099"></path><path id="kity_path_152" fill="none" stroke="rgb(115, 191, 118)" stroke-width="1" d="M709.5000150129199,148.500007070601C724.5000150129199,148.500007070601,724.5000150129199,156.500007070601,739.5000150129199,156.500007070601L908.5000150129199,156.500007070601"></path><path id="kity_path_153" fill="none" stroke="rgb(115, 191, 118)" stroke-width="1" d="M709.5000150129199,148.500007070601C727.0000150129199,148.500007070601,727.0000150129199,210.500007070601,744.5000150129199,210.500007070601L895.5000150129199,210.500007070601"></path><path id="kity_path_155" fill="none" stroke="rgb(115, 191, 118)" stroke-width="1" d="M725.5000150129199,56.50000707060099C740.5000150129199,56.50000707060099,740.5000150129199,70.50000707060099,755.5000150129199,70.50000707060099L845.5000150129199,70.50000707060099"></path><path id="kity_path_156" fill="none" stroke="rgb(115, 191, 118)" stroke-width="1" d="M247.5000150129199,57.50000707060099C232.5000150129199,57.50000707060099,232.5000150129199,45.50000707060099,217.5000150129199,45.50000707060099L164.5000150129199,45.50000707060099"></path><path id="kity_path_157" fill="none" stroke="rgb(115, 191, 118)" stroke-width="1" d="M247.5000150129199,57.50000707060099C232.5000150129199,57.50000707060099,232.5000150129199,97.50000707060099,217.5000150129199,97.50000707060099L100.5000150129199,97.50000707060099"></path><path id="kity_path_158" fill="none" stroke="rgb(115, 191, 118)" stroke-width="1" d="M154.5000150129199,146.500007070601C139.5000150129199,146.500007070601,139.5000150129199,134.500007070601,124.5000150129199,134.500007070601L20.500015012919903,134.500007070601"></path><path id="kity_path_159" fill="none" stroke="rgb(115, 191, 118)" stroke-width="1" d="M154.5000150129199,146.500007070601C139.5000150129199,146.500007070601,139.5000150129199,186.500007070601,124.5000150129199,186.500007070601L20.500015012919903,186.500007070601"></path></g><g id="minder_node1"><path id="kity_path_138" fill="rgba(0, 0, 0, .25)" stroke="none" d="M447.5000150129199,105.50000707060099h58a5,5,0,0,1,5,5v24a5,5,0,0,1,-5,5h-58a5,5,0,0,1,-5,-5v-24a5,5,0,0,1,5,-5z" display="none"></path><path id="node_outline1" fill="rgb(115, 191, 118)" stroke="rgb(115, 191, 118)" d="M429.5000150129199,97.50000707060099h71a5,5,0,0,1,5,5v30a5,5,0,0,1,-5,5h-71a5,5,0,0,1,-5,-5v-30a5,5,0,0,1,5,-5z" stroke-width="3"></path><g id="node_text1" fill="white"><text id="kity_text_22" text-rendering="inherit" font-size="16" dy=".8em" y="107.1000070348382" x="448.5000150129199">执行</text></g></g><g id="kity_g_12" display="none"><path id="kity_path_13" fill="none" stroke="none" d="M448.5000150129199,117.50000707060099h0v0h0z"></path></g><g id="kity_g_14" display="none"><path id="kity_path_15" fill="rgba(0, 153, 5, 0.5)" stroke="none" d="M749.5000150129199,158.500007070601h159v15h-159z"></path><path id="kity_path_16" fill="none" stroke="rgb(0, 128, 4)" d="M749.5000150129199,158.500007070601L908.5000150129199,158.500007070601" stroke-width="1"></path></g><g id="minder_node2" opacity="1"><path id="kity_path_134" fill="rgba(0, 0, 0, .25)" stroke="none" d="M647.5000179931521,49.500006161630154h75a5,5,0,0,1,5,5v14a5,5,0,0,1,-5,5h-75a5,5,0,0,1,-5,-5v-14a5,5,0,0,1,5,-5z" display="none"></path><g id="node_expander1" style="cursor: pointer;"><path id="kity_path_36" fill="white" stroke="gray" d="M627.5000175908208,56.500006161630154A6,6,0,1,1,615.5000175908208,56.500006161630154A6,6,0,1,1,627.5000175908208,56.500006161630154"></path><path id="kity_path_37" fill="none" stroke="gray" d="M617.0000175908208,56.500006161630154L626.0000175908208,56.500006161630154"></path></g><path id="node_outline2" fill="rgb(238, 246, 238)" stroke="rgb(115, 191, 118)" d="M631.5000179931521,43.500006161630154h91a3,3,0,0,1,3,3v20a3,3,0,0,1,-3,3h-91a3,3,0,0,1,-3,-3v-20a3,3,0,0,1,3,-3z" stroke-width="1"></path><g id="node_text2" fill="black"><text id="kity_text_33" text-rendering="inherit" font-size="14" dy=".8em" y="47.400006130337715" x="648.5000179931521">普通运算</text></g></g><g id="minder_node3" opacity="1"><path id="kity_path_135" fill="rgba(0, 0, 0, .25)" stroke="none" d="M659.5000181719661,141.50000753253698h43a5,5,0,0,1,5,5v14a5,5,0,0,1,-5,5h-43a5,5,0,0,1,-5,-5v-14a5,5,0,0,1,5,-5z" display="none"></path><g id="node_expander2" style="cursor: pointer;"><path id="kity_path_44" fill="white" stroke="gray" d="M639.5000177696347,148.50000753253698A6,6,0,1,1,627.5000177696347,148.50000753253698A6,6,0,1,1,639.5000177696347,148.50000753253698"></path><path id="kity_path_45" fill="none" stroke="gray" d="M629.0000177696347,148.50000753253698L638.0000177696347,148.50000753253698"></path></g><path id="node_outline3" fill="rgb(238, 246, 238)" stroke="rgb(115, 191, 118)" d="M643.5000181719661,135.50000753253698h63a3,3,0,0,1,3,3v20a3,3,0,0,1,-3,3h-63a3,3,0,0,1,-3,-3v-20a3,3,0,0,1,3,-3z" stroke-width="1"></path><g id="node_text3" fill="black"><text id="kity_text_41" text-rendering="inherit" font-size="14" dy=".8em" y="139.40000750124454" x="660.5000181719661">访存</text></g></g><g id="minder_node4" opacity="1"><path id="kity_path_136" fill="rgba(0, 0, 0, .25)" stroke="none" d="M266.5000123158097,50.500006176531315h58a5,5,0,0,1,5,5v14a5,5,0,0,1,-5,5h-58a5,5,0,0,1,-5,-5v-14a5,5,0,0,1,5,-5z" display="none"></path><g id="node_expander3" style="cursor: pointer;"><path id="kity_path_52" fill="white" stroke="gray" d="M342.50001334398985,57.500006176531315A6,6,0,1,1,330.50001334398985,57.500006176531315A6,6,0,1,1,342.50001334398985,57.500006176531315"></path><path id="kity_path_53" fill="none" stroke="gray" d="M332.00001334398985,57.500006176531315L341.00001334398985,57.500006176531315"></path></g><path id="node_outline4" fill="rgb(238, 246, 238)" stroke="rgb(115, 191, 118)" d="M250.50001231580973,44.500006176531315h76a3,3,0,0,1,3,3v20a3,3,0,0,1,-3,3h-76a3,3,0,0,1,-3,-3v-20a3,3,0,0,1,3,-3z" stroke-width="1"></path><g id="node_text4" fill="black"><text id="kity_text_49" text-rendering="inherit" font-size="14" dy=".8em" y="48.400006145238876" x="267.5000123158097">多周期</text></g></g><g id="minder_node10" opacity="1"><path id="kity_path_137" fill="rgba(0, 0, 0, .25)" stroke="none" d="M173.50001093000174,135.50000750273466h122a5,5,0,0,1,5,5v22a5,5,0,0,1,-5,5h-122a5,5,0,0,1,-5,-5v-22a5,5,0,0,1,5,-5z" display="none"></path><g id="node_expander9" style="cursor: pointer;"><path id="kity_path_104" fill="white" stroke="gray" d="M315.5000129416585,146.50000750273466A6,6,0,1,1,303.5000129416585,146.50000750273466A6,6,0,1,1,315.5000129416585,146.50000750273466"></path><path id="kity_path_105" fill="none" stroke="gray" d="M305.0000129416585,146.50000750273466L314.0000129416585,146.50000750273466"></path></g><path id="node_outline10" fill="rgb(238, 246, 238)" stroke="rgb(115, 191, 118)" d="M157.50001093000174,128.50000750273466h142a3,3,0,0,1,3,3v30a3,3,0,0,1,-3,3h-142a3,3,0,0,1,-3,-3v-30a3,3,0,0,1,3,-3z" stroke-width="1"></path><g id="node_text10" fill="black"><text id="kity_text_101" text-rendering="inherit" font-size="14" dy=".8em" y="137.40000747144222" x="174.50001093000174">跳转</text></g><g id="kity_g_114"><g id="kity_g_115"><path id="kity_path_116" fill="rgb(236, 255, 179)" stroke="none" d="M208.50001143664122,133.5000074878335h74v24h-74z"></path><text id="kity_text_117" text-rendering="geometricPrecision" font-size="12" dy="5" x="216.50001143664122" fill="rgb(57, 77, 0)" y="145.5000074878335">Advanced</text></g></g></g><g id="minder_node6"><path id="kity_path_140" fill="rgba(0, 0, 0, .25)" stroke="none" d="M790.000019647181,62.000006668269634h0a34,34,0,0,1,34,34v0a34,34,0,0,1,-34,34h0a34,34,0,0,1,-34,-34v0a34,34,0,0,1,34,-34z" display="none"></path><g id="node_expander5" style="cursor: pointer;" display="none"><path id="kity_path_68" fill="white" stroke="gray" d="M749.5000194087625,90.50000666826963A6,6,0,1,1,737.5000194087625,90.50000666826963A6,6,0,1,1,749.5000194087625,90.50000666826963"></path><path id="kity_path_69" fill="none" stroke="gray"></path></g><path id="node_outline6" fill="none" stroke="none" d="M754.500019647181,79.50000666826963h60a5,5,0,0,1,5,5v12a5,5,0,0,1,-5,5h-60a5,5,0,0,1,-5,-5v-12a5,5,0,0,1,5,-5z" stroke-width="3"></path><g id="node_text6" fill="black"><text id="kity_text_65" text-rendering="inherit" font-size="12" dy=".8em" y="82.70000664144754" x="759.500019647181">计算地址</text></g></g><g id="minder_node7"><path id="kity_path_141" fill="rgba(0, 0, 0, .25)" stroke="none" d="M838.500019647181,67.00000744313002h0a81,81,0,0,1,81,81v0a81,81,0,0,1,-81,81h0a81,81,0,0,1,-81,-81v0a81,81,0,0,1,81,-81z" display="none"></path><g id="node_expander6" style="cursor: pointer;" display="none"><path id="kity_path_76" fill="white" stroke="gray" d="M749.5000194087625,142.50000744313002A6,6,0,1,1,737.5000194087625,142.50000744313002A6,6,0,1,1,749.5000194087625,142.50000744313002"></path><path id="kity_path_77" fill="none" stroke="gray"></path></g><path id="node_outline7" fill="none" stroke="none" d="M754.500019647181,131.50000744313002h149a5,5,0,0,1,5,5v12a5,5,0,0,1,-5,5h-149a5,5,0,0,1,-5,-5v-12a5,5,0,0,1,5,-5z" stroke-width="3"></path><g id="node_text7" fill="black"><text id="kity_text_73" text-rendering="inherit" font-size="12" dy=".8em" y="134.70000741630793" x="759.500019647181">生成Mask/Size等AXI参数</text></g></g><g id="minder_node8" opacity="1"><path id="kity_path_142" fill="rgba(0, 0, 0, .25)" stroke="none" d="M837.5000197216868,119.50000815838575h0a76,76,0,0,1,76,76v0a76,76,0,0,1,-76,76h0a76,76,0,0,1,-76,-76v0a76,76,0,0,1,76,-76z" display="none"></path><g id="node_expander7" style="cursor: pointer;" display="none"><path id="kity_path_84" fill="white" stroke="gray" d="M754.5000194832683,190.50000815838575A6,6,0,1,1,742.5000194832683,190.50000815838575A6,6,0,1,1,754.5000194832683,190.50000815838575"></path><path id="kity_path_85" fill="none" stroke="gray"></path></g><path id="node_outline8" fill="none" stroke="none" d="M759.5000197216868,173.50000815838575h131a5,5,0,0,1,5,5v24a5,5,0,0,1,-5,5h-131a5,5,0,0,1,-5,-5v-24a5,5,0,0,1,5,-5z" stroke-width="3"></path><g id="node_text8" fill="black"><text id="kity_text_81" text-rendering="inherit" font-size="12" dy=".8em" y="182.70000813156366" x="764.5000197216868">地址冲突检查</text></g><g id="kity_g_86"><g id="kity_g_87"><path id="kity_path_88" fill="rgb(179, 229, 255)" stroke="none" d="M843.5000208988786,177.5000081434846h42v24h-42z"></path><text id="kity_text_89" text-rendering="geometricPrecision" font-size="12" dy="5" x="851.5000208988786" fill="rgb(0, 50, 77)" y="189.5000081434846">初赛</text></g></g></g><g id="minder_node5"><path id="kity_path_139" fill="rgba(0, 0, 0, .25)" stroke="none" d="M812.0000198855996,23.000006161630154h0a39,39,0,0,1,39,39v0a39,39,0,0,1,-39,39h0a39,39,0,0,1,-39,-39v0a39,39,0,0,1,39,-39z" display="none"></path><g id="node_expander4" style="cursor: pointer;" display="none"><path id="kity_path_60" fill="white" stroke="gray" d="M765.500019647181,56.500006161630154A6,6,0,1,1,753.500019647181,56.500006161630154A6,6,0,1,1,765.500019647181,56.500006161630154"></path><path id="kity_path_61" fill="none" stroke="gray"></path></g><path id="node_outline5" fill="none" stroke="none" d="M770.5000198855996,45.500006161630154h70a5,5,0,0,1,5,5v12a5,5,0,0,1,-5,5h-70a5,5,0,0,1,-5,-5v-12a5,5,0,0,1,5,-5z" stroke-width="3"></path><g id="node_text5" fill="black"><text id="kity_text_57" text-rendering="inherit" font-size="12" dy=".8em" y="48.70000613480806" x="775.5000198855996">交ALU执行</text></g></g><g id="minder_node9"><path id="kity_path_143" fill="rgba(0, 0, 0, .25)" stroke="none" d="M191.00001093000174,16.000005789101124h0a21,21,0,0,1,21,21v0a21,21,0,0,1,-21,21h0a21,21,0,0,1,-21,-21v0a21,21,0,0,1,21,-21z" display="none"></path><g id="node_expander8" style="cursor: pointer;" display="none"><path id="kity_path_96" fill="white" stroke="gray" d="M219.50001151114702,31.500005789101124A6,6,0,1,1,207.50001151114702,31.500005789101124A6,6,0,1,1,219.50001151114702,31.500005789101124"></path><path id="kity_path_97" fill="none" stroke="gray"></path></g><path id="node_outline9" fill="none" stroke="none" d="M169.50001093000174,20.500005789101124h33a5,5,0,0,1,5,5v12a5,5,0,0,1,-5,5h-33a5,5,0,0,1,-5,-5v-12a5,5,0,0,1,5,-5z" stroke-width="3"></path><g id="node_text9" fill="black"><text id="kity_text_93" text-rendering="inherit" font-size="12" dy=".8em" y="23.700005762279034" x="174.50001093000174">stall</text></g></g><g id="minder_node11"><path id="kity_path_144" fill="rgba(0, 0, 0, .25)" stroke="none" d="M161.00000997632742,36.000006563961506h0a53,53,0,0,1,53,53v0a53,53,0,0,1,-53,53h0a53,53,0,0,1,-53,-53v0a53,53,0,0,1,53,-53z" display="none"></path><g id="node_expander10" style="cursor: pointer;" display="none"><path id="kity_path_112" fill="white" stroke="gray" d="M219.50001151114702,83.5000065639615A6,6,0,1,1,207.50001151114702,83.5000065639615A6,6,0,1,1,219.50001151114702,83.5000065639615"></path><path id="kity_path_113" fill="none" stroke="gray"></path></g><path id="node_outline11" fill="none" stroke="none" d="M105.50000997632742,72.5000065639615h97a5,5,0,0,1,5,5v12a5,5,0,0,1,-5,5h-97a5,5,0,0,1,-5,-5v-12a5,5,0,0,1,5,-5z" stroke-width="3"></path><g id="node_text11" fill="black"><text id="kity_text_109" text-rendering="inherit" font-size="12" dy=".8em" y="75.70000653713942" x="110.50000997632742">直接与HiLo交互</text></g></g><g id="minder_node12"><path id="kity_path_145" fill="rgba(0, 0, 0, .25)" stroke="none" d="M74.00000878423452,80.00000711530447h0a46,46,0,0,1,46,46v0a46,46,0,0,1,-46,46h0a46,46,0,0,1,-46,-46v0a46,46,0,0,1,46,-46z" display="none"></path><g id="node_expander11" style="cursor: pointer;" display="none"><path id="kity_path_124" fill="white" stroke="gray" d="M126.50001012533903,120.50000711530447A6,6,0,1,1,114.50001012533903,120.50000711530447A6,6,0,1,1,126.50001012533903,120.50000711530447"></path><path id="kity_path_125" fill="none" stroke="gray"></path></g><path id="node_outline12" fill="none" stroke="none" d="M25.500008784234524,109.50000711530447h84a5,5,0,0,1,5,5v12a5,5,0,0,1,-5,5h-84a5,5,0,0,1,-5,-5v-12a5,5,0,0,1,5,-5z" stroke-width="3"></path><g id="node_text12" fill="black"><text id="kity_text_121" text-rendering="inherit" font-size="12" dy=".8em" y="112.70000708848238" x="30.500008784234524">发出跳转信号</text></g></g><g id="minder_node13"><path id="kity_path_146" fill="rgba(0, 0, 0, .25)" stroke="none" d="M74.00000878423452,132.00000789016485h0a46,46,0,0,1,46,46v0a46,46,0,0,1,-46,46h0a46,46,0,0,1,-46,-46v0a46,46,0,0,1,46,-46z" display="none"></path><g id="node_expander12" style="cursor: pointer;" display="none"><path id="kity_path_132" fill="white" stroke="gray" d="M126.50001012533903,172.50000789016485A6,6,0,1,1,114.50001012533903,172.50000789016485A6,6,0,1,1,126.50001012533903,172.50000789016485"></path><path id="kity_path_133" fill="none" stroke="gray"></path></g><path id="node_outline13" fill="none" stroke="none" d="M25.500008784234524,161.50000789016485h84a5,5,0,0,1,5,5v12a5,5,0,0,1,-5,5h-84a5,5,0,0,1,-5,-5v-12a5,5,0,0,1,5,-5z" stroke-width="3"></path><g id="node_text13" fill="black"><text id="kity_text_129" text-rendering="inherit" font-size="12" dy=".8em" y="164.70000786334276" x="30.500008784234524">计算跳转地址</text></g></g></g></g></svg>